<?xml version="1.0" encoding="UTF-8"?>
<svg version="1.1" xmlns="http://www.w3.org/2000/svg" width="512" height="512">
<path d="M0 0 C0.80804077 0.00021149 1.61608154 0.00042297 2.4486084 0.00064087 C16.31523855 0.03670026 29.59747239 1.14741688 43.125 4.375 C43.88538574 4.55160156 44.64577148 4.72820313 45.42919922 4.91015625 C90.87731726 15.84443281 130.4039035 46.88300238 154.83056641 86.22167969 C177.54423182 124.00638904 188.51140829 170.42794651 178.0625 213.875 C167.45788671 254.996573 147.50480821 293.87566993 126.125 330.375 C125.48916992 331.46441895 124.85333984 332.55383789 124.19824219 333.67626953 C115.77669384 348.0809063 107.15808167 362.34414606 98.125 376.375 C97.22782016 377.77601322 96.33068433 379.17705462 95.43359375 380.578125 C84.64255809 397.3827409 73.52441588 413.9773787 62.125 430.375 C61.58907227 431.14666504 61.05314453 431.91833008 60.50097656 432.71337891 C52.17116753 444.69490399 43.72315724 456.58462121 35.125 468.375 C34.56312988 469.1469873 34.00125977 469.91897461 33.42236328 470.71435547 C26.38160426 480.37677935 19.22417485 489.93040375 11.83032227 499.32617188 C8.47355269 503.5981526 5.24942041 507.92982831 2.125 512.375 C-1.99771388 510.83964449 -4.12276147 507.89739629 -6.6875 504.5 C-7.15687988 503.88995117 -7.62625977 503.27990234 -8.10986328 502.65136719 C-9.70790404 500.56642741 -11.29218727 498.47152046 -12.875 496.375 C-13.74922607 495.22306152 -13.74922607 495.22306152 -14.64111328 494.04785156 C-23.01357251 483.00807994 -31.20682018 471.84673778 -39.28222656 460.58837891 C-40.88629584 458.35930287 -42.50014063 456.1376448 -44.1171875 453.91796875 C-95.5979736 383.1947023 -151.95033751 303.75820253 -178.42163086 153.07641602 C-172.20401183 118.42476975 -157.4009073 85.60225238 -133.18359375 59.8359375 C-131.13281689 57.64983019 -129.18379725 55.4139845 -127.25 53.125 C-96.33327529 17.63213614 -45.96106 -0.11155597 0 0 Z " fill="#242463" transform="translate(252.875,-0.375)"/>
<path d="M0 0 C2.53051398 2.22049696 4.962917 4.50298986 7.36328125 6.86328125 C8.06324219 7.55035156 8.76320313 8.23742187 9.484375 8.9453125 C24.14648844 24.35053501 29.8543465 44.03881465 29.578125 64.89453125 C28.93874996 85.57692385 19.71342971 105.15455736 4.88867188 119.47900391 C-3.18370663 126.80460988 -12.62861367 131.71590075 -22.63671875 135.86328125 C-23.39984375 136.20488281 -24.16296875 136.54648437 -24.94921875 136.8984375 C-42.48672902 143.19460761 -64.20485466 141.65675448 -81.00390625 133.91015625 C-101.95351468 123.66945152 -115.97996925 107.96192192 -123.984375 86.19921875 C-130.38203761 66.24951813 -129.12535839 45.24341976 -119.88671875 26.42578125 C-116.52590143 19.94157438 -112.58520635 14.25647041 -107.63671875 8.86328125 C-106.97285156 8.10789063 -106.30898437 7.3525 -105.625 6.57421875 C-78.18235019 -22.94818826 -30.95971077 -25.08883228 0 0 Z " fill="#D8EBF6" transform="translate(303.63671875,127.13671875)"/>
</svg>
